<svg xmlns="http://www.w3.org/2000/svg" viewBox="0 0 500 500"><g id="freepik--background-simple--inject-64"><path d="M401.85,174.32c-6.8,54.22-54.3,108.35-106.54,143.21-135,90.82-265.51-63.29-232.59-118.64,24.71-56.14,101.79-40.72,134.58-62.79C381.59,11.18,408.24,128.94,401.85,174.32Z" style="fill:#407BFF"></path><path d="M401.85,174.32c-6.8,54.22-54.3,108.35-106.54,143.21-135,90.82-265.51-63.29-232.59-118.64,24.71-56.14,101.79-40.72,134.58-62.79C381.59,11.18,408.24,128.94,401.85,174.32Z" style="fill:#fff;opacity:0.9"></path></g><g id="freepik--Shadow--inject-64"><ellipse id="freepik--path--inject-64" cx="250" cy="416.24" rx="193.89" ry="11.32" style="fill:#f5f5f5"></ellipse></g><g id="freepik--Login--inject-64"><polygon points="249.96 361.05 107.96 361.05 100.19 132.68 242.19 132.68 249.96 361.05" style="fill:#407BFF"></polygon><polygon points="257.05 353.96 115.05 353.96 107.27 125.59 249.27 125.59 257.05 353.96" style="fill:#407BFF"></polygon><polygon points="257.05 353.96 115.05 353.96 107.27 125.59 249.27 125.59 257.05 353.96" style="fill:#fff;opacity:0.30000000000000004"></polygon><ellipse cx="180.5" cy="191.09" rx="39.27" ry="40.63" transform="translate(-82.31 185.84) rotate(-45.49)" style="fill:#407BFF"></ellipse><path d="M213.47,191.09a32,32,0,0,1-3.45,15.7,31.59,31.59,0,0,1-28.4,17.26,34.26,34.26,0,0,1-29.56-17.26,33.49,33.49,0,0,1-4.52-15.7,31.64,31.64,0,0,1,31.84-33A34.36,34.36,0,0,1,213.47,191.09Z" style="fill:#fff"></path><path d="M210,206.79a31.59,31.59,0,0,1-28.4,17.26,34.26,34.26,0,0,1-29.56-17.26A50.59,50.59,0,0,1,180.74,198,53.48,53.48,0,0,1,210,206.79Z" style="fill:#407BFF;opacity:0.6000000000000001"></path><ellipse cx="180.12" cy="179.81" rx="14.44" ry="14.94" transform="translate(-74.38 182.19) rotate(-45.49)" style="fill:#407BFF;opacity:0.6000000000000001"></ellipse><polygon points="228.52 271.26 137.94 271.26 137.33 253.26 227.91 253.26 228.52 271.26" style="fill:#fff"></polygon><polygon points="229.62 303.43 139.03 303.43 138.42 285.43 229.01 285.43 229.62 303.43" style="fill:#fff"></polygon><path d="M194.66,287.91l-21.83,3a1.52,1.52,0,0,0-1.32,1.8l2.87,14.63a1.76,1.76,0,0,0,1.94,1.37l21.83-3a1.53,1.53,0,0,0,1.31-1.81l-2.86-14.63A1.75,1.75,0,0,0,194.66,287.91Zm-6.27,14.82-4,.53-.39-4.72a2.8,2.8,0,0,1-1.63-2,2.49,2.49,0,0,1,2.16-3,2.86,2.86,0,0,1,3.16,2.23,2.45,2.45,0,0,1-.78,2.33Z" style="fill:#407BFF"></path><path d="M192.5,287.12h0a1.56,1.56,0,0,1-1.72-1.21l-.28-1.43a8.23,8.23,0,0,0-8.62-6.56,7,7,0,0,0-6.46,8.39l.32,1.65a1.34,1.34,0,0,1-1.17,1.6h0a1.54,1.54,0,0,1-1.72-1.21l-.27-1.39a9.85,9.85,0,0,1,8-11.75,11.2,11.2,0,0,1,12.8,8.67l.32,1.64A1.34,1.34,0,0,1,192.5,287.12Z" style="fill:#407BFF"></path><polygon points="214.67 328.64 155.7 328.64 155.31 316.92 214.27 316.92 214.67 328.64" style="fill:#407BFF"></polygon><path d="M186.22,262.26a3.16,3.16,0,0,1-3.18,3.29,3.44,3.44,0,0,1-3.41-3.29,3.16,3.16,0,0,1,3.18-3.29A3.43,3.43,0,0,1,186.22,262.26Z" style="fill:#263238"></path><path d="M172,262.26a3.15,3.15,0,0,1-3.18,3.29,3.43,3.43,0,0,1-3.4-3.29,3.16,3.16,0,0,1,3.18-3.29A3.42,3.42,0,0,1,172,262.26Z" style="fill:#263238"></path><path d="M157.87,262.26a3.16,3.16,0,0,1-3.18,3.29,3.42,3.42,0,0,1-3.4-3.29,3.16,3.16,0,0,1,3.18-3.29A3.42,3.42,0,0,1,157.87,262.26Z" style="fill:#263238"></path><path d="M200.39,262.26a3.16,3.16,0,0,1-3.18,3.29,3.42,3.42,0,0,1-3.4-3.29A3.15,3.15,0,0,1,197,259,3.42,3.42,0,0,1,200.39,262.26Z" style="fill:#263238"></path><path d="M214.56,262.26a3.15,3.15,0,0,1-3.18,3.29,3.43,3.43,0,0,1-3.4-3.29,3.16,3.16,0,0,1,3.18-3.29A3.42,3.42,0,0,1,214.56,262.26Z" style="fill:#263238"></path></g></svg>